<svg xmlns="http://www.w3.org/2000/svg" width="1560" height="137" viewBox="0 0 1560 137"><defs><clipPath id="fkvca"><path d="M72.169 96.081c0-28.416-25.865-32.657-41.285-32.657h-4.525v62.599H36.89c22.423 0 35.278-10.912 35.278-29.942zM26.359 55.29H36.39c16.338 0 24.617-7.588 24.617-22.555 0-13.791-8.19-21.387-23.07-21.387h-11.58zm28.405 3.466c20.321 2.982 41.011 14.524 41.011 38.687 0 12.996-6.628 22.818-19.701 29.2-13.049 6.369-28.462 7.321-36.489 7.321H0v-2.496c5.238-2.536 5.083-11.001 5.083-16.984V22.689c0-5.981.155-14.447-5.083-16.983V3.21h31.99c16.954 0 29.41 2.053 37.02 6.09 8.788 4.618 14.252 13.3 14.252 22.656 0 12.28-9.332 21.061-28.498 26.8zm169.587 9.832c0-33.3-16.68-60.296-44.386-60.296-27.707 0-44.384 26.995-44.384 60.296 0 33.3 16.677 60.295 44.384 60.295 27.706 0 44.386-26.995 44.386-60.295zM179.965.17c38.428 0 69.583 30.632 69.583 68.417 0 37.786-31.155 68.416-69.583 68.416-38.43 0-69.581-30.63-69.581-68.416 0-37.785 31.15-68.417 69.581-68.417zM254 17.381V3.003h82v14.378h-2.425c-4.245-6.479-11.595-6.426-17.453-6.422h-10.586v103.53h-.008c0 5.991-.153 14.472 5.033 17.016v2.498h-31.12v-2.498c5.186-2.544 5.033-11.025 5.033-17.017h-.01V10.958h-10.586c-5.858-.003-13.208-.056-17.453 6.423H254m104 0V3.003h82v14.378h-2.425c-4.246-6.479-11.595-6.426-17.455-6.422h-10.585v103.53h-.006c0 5.991-.155 14.472 5.033 17.016v2.498H383.44v-2.498c5.186-2.544 5.033-11.025 5.033-17.017h-.008V10.958H377.88c-5.86-.003-13.209-.056-17.455 6.423H358M531.103 126.05c5.867.002 13.446-.025 17.47-6.425H551v14.378h-88v-2.461c6.577-4.318 6.531-12.125 6.53-18.26V23.726c.001-6.134.047-13.942-6.53-18.26V3.004h82.596v14.378h-2.427c-4.189-6.45-11.603-6.426-17.47-6.424h-35.272v51.74h29.574c5.953 0 14.468.074 16.784-5.102h2.464V75.75h-2.464c-2.316-5.179-10.83-5.103-16.784-5.103h-29.574v55.402h40.676m136.356-50.738V72.89h32.924c-1.094 14.345-2.684 22.297-8.879 32.83-11.97 20.175-32.194 31.283-56.949 31.283-18.879 0-36.544-6.677-49.744-18.794-13.594-12.483-21.081-29.691-21.081-48.454 0-21.036 11.089-43.023 28.25-56.018C603.666 4.862 618.186.17 633.972.17c8.361 0 16.613 1.124 23.9 3.141 1.457.406 5.815 1.596 10.727 2.156 4.356.46 10.703.389 13.42-2.216h2.417v30.13l-2.417.406a50.905 50.905 0 0 0-2.554-4.085c-9.92-14.182-23.94-21.372-43.158-21.372-16.346 0-28.915 6.115-37.358 18.18-7.297 10.432-10.392 24.98-10.392 42.075 0 16.086 3.099 30.736 10.11 41.258 8.195 12.3 20.605 18.804 35.89 18.804 20.053 0 41.52-16.04 41.52-39.925 0-12.156-8.617-13.41-8.617-13.41m109.185 8.152l-20.321-53.218-20.32 53.218zm35.663 34.15c1.308 3.198 4.897 12.022 9.6 13.77v2.577h-35.09v-2.546c4.54-2.132 5.71-6.032 3.8-11.142L779.79 91.405h-46.74L722.1 120.269c-1.907 5.109-.813 8.918 3.797 11.138v2.554h-22.43v-2.616c5.12-1.452 9.426-9.402 11.058-13.948L758.259 3.21h9.896l.143.364zM977.634 5.574v-2.56l22.366-.01v2.623c-4.919 1.36-9.3 9.102-10.957 13.965l-39.356 114.411h-10.8L900.335 19.354c-1.761-5.233-5.09-12.047-9.334-13.77v-2.58h34.775v2.554c-6.432 3.09-4.66 10.059-3.66 12.817l28.915 86.648 30.694-89.23c1.013-3.185 1.154-7.69-4.09-10.219m109.47 120.476c5.867.002 13.445-.025 17.47-6.425H1107v14.378h-88v-2.461c6.577-4.318 6.531-12.125 6.53-18.26V23.726c.001-6.134.047-13.942-6.53-18.26V3.004h82.598v14.378h-2.43c-4.186-6.45-11.603-6.426-17.468-6.424h-35.274v51.74H1076c5.954 0 14.47.074 16.787-5.102h2.46V75.75h-2.46c-2.316-5.179-10.833-5.103-16.787-5.103h-29.574v55.402h40.678M1210.355 5.459V3.003H1227V5.46c-4.152 2.674-4.115 10.824-4.105 13.412v115.132h-5.473l-74.625-107.479v91.612c-.01 2.588-.046 10.736 4.106 13.41v2.457h-16.645v-2.457c4.15-2.674 4.115-10.822 4.105-13.41l-.004-94.955c.004-5.954.031-13.566-6.359-17.714V3.003h25.705l.168.244 60.588 87.16V18.87c.01-2.588.044-10.738-4.106-13.412m109.748 120.59c5.867.003 13.446-.024 17.47-6.424H1340v14.378h-88v-2.461c6.577-4.318 6.531-12.125 6.527-18.26V23.726c.004-6.134.05-13.942-6.527-18.26V3.004h82.596v14.378h-2.427c-4.19-6.45-11.603-6.426-17.47-6.424h-35.272v51.74h29.574c5.953 0 14.468.074 16.784-5.102h2.462V75.75h-2.462c-2.316-5.179-10.83-5.103-16.784-5.103h-29.574v55.402h40.676M1358 17.38V3.003h82v14.378h-2.427c-4.242-6.479-11.595-6.426-17.453-6.422h-10.585v103.53h-.008c0 5.991-.152 14.472 5.035 17.016v2.498h-31.12v-2.498c5.186-2.544 5.033-11.025 5.033-17.017h-.01V10.958h-10.585c-5.86-.003-13.21-.056-17.455 6.423H1358m156.905 66.028L1494.66 30.09l-20.243 53.319zm35.53 34.214c1.303 3.204 4.881 12.047 9.565 13.798v2.582h-34.96v-2.55c4.523-2.137 5.69-6.046 3.787-11.164l-10.789-28.925h-46.566l-10.905 28.92c-1.904 5.117-.812 8.934 3.783 11.16v2.56H1442v-2.624c5.103-1.453 9.393-9.418 11.02-13.975l43.57-114.402h9.86l.14.364z"/></clipPath></defs><g><g><g><g><g><path fill="#2d2a08" d="M72.169 96.081c0-28.416-25.865-32.657-41.285-32.657h-4.525v62.599H36.89c22.423 0 35.278-10.912 35.278-29.942zM26.359 55.29H36.39c16.338 0 24.617-7.588 24.617-22.555 0-13.791-8.19-21.387-23.07-21.387h-11.58zm28.405 3.466c20.321 2.982 41.011 14.524 41.011 38.687 0 12.996-6.628 22.818-19.701 29.2-13.049 6.369-28.462 7.321-36.489 7.321H0v-2.496c5.238-2.536 5.083-11.001 5.083-16.984V22.689c0-5.981.155-14.447-5.083-16.983V3.21h31.99c16.954 0 29.41 2.053 37.02 6.09 8.788 4.618 14.252 13.3 14.252 22.656 0 12.28-9.332 21.061-28.498 26.8zm169.587 9.832c0-33.3-16.68-60.296-44.386-60.296-27.707 0-44.384 26.995-44.384 60.296 0 33.3 16.677 60.295 44.384 60.295 27.706 0 44.386-26.995 44.386-60.295zM179.965.17c38.428 0 69.583 30.632 69.583 68.417 0 37.786-31.155 68.416-69.583 68.416-38.43 0-69.581-30.63-69.581-68.416 0-37.785 31.15-68.417 69.581-68.417zM254 17.381V3.003h82v14.378h-2.425c-4.245-6.479-11.595-6.426-17.453-6.422h-10.586v103.53h-.008c0 5.991-.153 14.472 5.033 17.016v2.498h-31.12v-2.498c5.186-2.544 5.033-11.025 5.033-17.017h-.01V10.958h-10.586c-5.858-.003-13.208-.056-17.453 6.423H254m104 0V3.003h82v14.378h-2.425c-4.246-6.479-11.595-6.426-17.455-6.422h-10.585v103.53h-.006c0 5.991-.155 14.472 5.033 17.016v2.498H383.44v-2.498c5.186-2.544 5.033-11.025 5.033-17.017h-.008V10.958H377.88c-5.86-.003-13.209-.056-17.455 6.423H358M531.103 126.05c5.867.002 13.446-.025 17.47-6.425H551v14.378h-88v-2.461c6.577-4.318 6.531-12.125 6.53-18.26V23.726c.001-6.134.047-13.942-6.53-18.26V3.004h82.596v14.378h-2.427c-4.189-6.45-11.603-6.426-17.47-6.424h-35.272v51.74h29.574c5.953 0 14.468.074 16.784-5.102h2.464V75.75h-2.464c-2.316-5.179-10.83-5.103-16.784-5.103h-29.574v55.402h40.676m136.356-50.738V72.89h32.924c-1.094 14.345-2.684 22.297-8.879 32.83-11.97 20.175-32.194 31.283-56.949 31.283-18.879 0-36.544-6.677-49.744-18.794-13.594-12.483-21.081-29.691-21.081-48.454 0-21.036 11.089-43.023 28.25-56.018C603.666 4.862 618.186.17 633.972.17c8.361 0 16.613 1.124 23.9 3.141 1.457.406 5.815 1.596 10.727 2.156 4.356.46 10.703.389 13.42-2.216h2.417v30.13l-2.417.406a50.905 50.905 0 0 0-2.554-4.085c-9.92-14.182-23.94-21.372-43.158-21.372-16.346 0-28.915 6.115-37.358 18.18-7.297 10.432-10.392 24.98-10.392 42.075 0 16.086 3.099 30.736 10.11 41.258 8.195 12.3 20.605 18.804 35.89 18.804 20.053 0 41.52-16.04 41.52-39.925 0-12.156-8.617-13.41-8.617-13.41m109.185 8.152l-20.321-53.218-20.32 53.218zm35.663 34.15c1.308 3.198 4.897 12.022 9.6 13.77v2.577h-35.09v-2.546c4.54-2.132 5.71-6.032 3.8-11.142L779.79 91.405h-46.74L722.1 120.269c-1.907 5.109-.813 8.918 3.797 11.138v2.554h-22.43v-2.616c5.12-1.452 9.426-9.402 11.058-13.948L758.259 3.21h9.896l.143.364zM977.634 5.574v-2.56l22.366-.01v2.623c-4.919 1.36-9.3 9.102-10.957 13.965l-39.356 114.411h-10.8L900.335 19.354c-1.761-5.233-5.09-12.047-9.334-13.77v-2.58h34.775v2.554c-6.432 3.09-4.66 10.059-3.66 12.817l28.915 86.648 30.694-89.23c1.013-3.185 1.154-7.69-4.09-10.219m109.47 120.476c5.867.002 13.445-.025 17.47-6.425H1107v14.378h-88v-2.461c6.577-4.318 6.531-12.125 6.53-18.26V23.726c.001-6.134.047-13.942-6.53-18.26V3.004h82.598v14.378h-2.43c-4.186-6.45-11.603-6.426-17.468-6.424h-35.274v51.74H1076c5.954 0 14.47.074 16.787-5.102h2.46V75.75h-2.46c-2.316-5.179-10.833-5.103-16.787-5.103h-29.574v55.402h40.678M1210.355 5.459V3.003H1227V5.46c-4.152 2.674-4.115 10.824-4.105 13.412v115.132h-5.473l-74.625-107.479v91.612c-.01 2.588-.046 10.736 4.106 13.41v2.457h-16.645v-2.457c4.15-2.674 4.115-10.822 4.105-13.41l-.004-94.955c.004-5.954.031-13.566-6.359-17.714V3.003h25.705l.168.244 60.588 87.16V18.87c.01-2.588.044-10.738-4.106-13.412m109.748 120.59c5.867.003 13.446-.024 17.47-6.424H1340v14.378h-88v-2.461c6.577-4.318 6.531-12.125 6.527-18.26V23.726c.004-6.134.05-13.942-6.527-18.26V3.004h82.596v14.378h-2.427c-4.19-6.45-11.603-6.426-17.47-6.424h-35.272v51.74h29.574c5.953 0 14.468.074 16.784-5.102h2.462V75.75h-2.462c-2.316-5.179-10.83-5.103-16.784-5.103h-29.574v55.402h40.676M1358 17.38V3.003h82v14.378h-2.427c-4.242-6.479-11.595-6.426-17.453-6.422h-10.585v103.53h-.008c0 5.991-.152 14.472 5.035 17.016v2.498h-31.12v-2.498c5.186-2.544 5.033-11.025 5.033-17.017h-.01V10.958h-10.585c-5.86-.003-13.21-.056-17.455 6.423H1358m156.905 66.028L1494.66 30.09l-20.243 53.319zm35.53 34.214c1.303 3.204 4.881 12.047 9.565 13.798v2.582h-34.96v-2.55c4.523-2.137 5.69-6.046 3.787-11.164l-10.789-28.925h-46.566l-10.905 28.92c-1.904 5.117-.812 8.934 3.783 11.16v2.56H1442v-2.624c5.103-1.453 9.393-9.418 11.02-13.975l43.57-114.402h9.86l.14.364z"/></g><g clip-path="url(#fkvca)"><g><path fill="#2d2a08" d="M0 0h1560v137H0z"/></g></g></g></g></g></g></svg>